<svg width="16" height="16" viewBox="0 0 16 16" fill="none" xmlns="http://www.w3.org/2000/svg">
<path d="M5.72462 5.49095L7.45662 2.00295C7.50704 1.90201 7.58458 1.81711 7.68055 1.75777C7.77652 1.69843 7.88712 1.66699 7.99996 1.66699C8.11279 1.66699 8.22339 1.69843 8.31936 1.75777C8.41533 1.81711 8.49287 1.90201 8.54329 2.00295L10.2753 5.49095L14.1473 6.05362C14.259 6.06911 14.3641 6.11568 14.4505 6.18803C14.537 6.26037 14.6014 6.35558 14.6364 6.46277C14.6713 6.56996 14.6755 6.68483 14.6483 6.79425C14.6211 6.90368 14.5637 7.00326 14.4826 7.08162L11.6813 9.79495L12.3426 13.6283C12.4273 14.1203 11.9073 14.495 11.4626 14.263L7.99996 12.4523L4.53662 14.263C4.09262 14.4956 3.57262 14.1203 3.65729 13.6276L4.31862 9.79429L1.51729 7.08095C1.43661 7.00254 1.37955 6.90306 1.3526 6.79383C1.32564 6.6846 1.32987 6.57 1.3648 6.46305C1.39973 6.3561 1.46397 6.2611 1.5502 6.18884C1.63644 6.11658 1.74121 6.06996 1.85262 6.05429L5.72462 5.49095Z" fill="#FDB54A"/>
</svg>
