<svg width="12" height="12" viewBox="0 0 12 12" fill="none" xmlns="http://www.w3.org/2000/svg">
<path d="M10 5C10 7.209 6 11 6 11C6 11 2 7.209 2 5C2 3.93913 2.42143 2.92172 3.17157 2.17157C3.92172 1.42143 4.93913 1 6 1C7.06087 1 8.07828 1.42143 8.82843 2.17157C9.57857 2.92172 10 3.93913 10 5Z" fill="#FA712D"/>
<path d="M6.00002 5.39922C6.15915 5.39922 6.31177 5.336 6.42429 5.22348C6.53681 5.11096 6.60002 4.95835 6.60002 4.79922C6.60002 4.64009 6.53681 4.48748 6.42429 4.37495C6.31177 4.26243 6.15915 4.19922 6.00002 4.19922C5.84089 4.19922 5.68828 4.26243 5.57576 4.37495C5.46324 4.48748 5.40002 4.64009 5.40002 4.79922C5.40002 4.95835 5.46324 5.11096 5.57576 5.22348C5.68828 5.336 5.84089 5.39922 6.00002 5.39922Z" fill="white" stroke="white" stroke-width="1.25" stroke-linecap="round" stroke-linejoin="round"/>
</svg>
