<svg width="9" height="9" viewBox="0 0 9 9" fill="none" xmlns="http://www.w3.org/2000/svg">
<path d="M3.22015 3.08848L4.1944 1.12648C4.22276 1.0697 4.26638 1.02194 4.32036 0.98856C4.37435 0.955181 4.43656 0.9375 4.50003 0.9375C4.5635 0.9375 4.62571 0.955181 4.67969 0.98856C4.73368 1.02194 4.77729 1.0697 4.80565 1.12648L5.7799 3.08848L7.9579 3.40498C8.02073 3.41369 8.07983 3.43989 8.12848 3.48058C8.17712 3.52128 8.21335 3.57483 8.23302 3.63513C8.25269 3.69542 8.25501 3.76003 8.23971 3.82159C8.22442 3.88314 8.19213 3.93915 8.14653 3.98323L6.57078 5.50948L6.94278 7.66573C6.9904 7.94248 6.6979 8.15323 6.44778 8.02273L4.50003 7.00423L2.5519 8.02273C2.30215 8.1536 2.00965 7.94248 2.05728 7.66535L2.42928 5.5091L0.853528 3.98285C0.808148 3.93874 0.776052 3.88279 0.76089 3.82135C0.745727 3.7599 0.748105 3.69544 0.767754 3.63528C0.787403 3.57512 0.823534 3.52169 0.872041 3.48104C0.920548 3.44039 0.979485 3.41417 1.04215 3.40535L3.22015 3.08848Z" fill="#FFC42D"/>
</svg>
