<?xml version="1.0" encoding="UTF-8"?>
<!DOCTYPE svg PUBLIC "-//W3C//DTD SVG 1.1//EN" "http://www.w3.org/Graphics/SVG/1.1/DTD/svg11.dtd">
<svg xmlns="http://www.w3.org/2000/svg" version="1.1" width="512px" height="512px" style="shape-rendering:geometricPrecision; text-rendering:geometricPrecision; image-rendering:optimizeQuality; fill-rule:evenodd; clip-rule:evenodd" xmlns:xlink="http://www.w3.org/1999/xlink">
<g><path style="opacity:0.961" fill="#929292" d="M 87.5,63.5 C 133.168,63.3333 178.835,63.5 224.5,64C 297,136.5 369.5,209 442,281.5C 449.589,294.741 449.256,307.741 441,320.5C 400.139,361.694 358.972,402.528 317.5,443C 305.334,449.209 293.334,448.876 281.5,442C 209,369.5 136.5,297 64,224.5C 63.3333,178.833 63.3333,133.167 64,87.5C 67.3402,74.994 75.1735,66.994 87.5,63.5 Z M 95.5,79.5 C 135.501,79.3333 175.501,79.5 215.5,80C 286.027,150.861 356.861,221.361 428,291.5C 431.598,298.255 430.931,304.589 426,310.5C 386.833,349.667 347.667,388.833 308.5,428C 302.33,431.42 296.33,431.086 290.5,427C 220.694,356.194 150.528,285.694 80,215.5C 79.3333,175.5 79.3333,135.5 80,95.5C 81.3459,86.3224 86.5125,80.9891 95.5,79.5 Z M 144.5,128.5 C 165.467,126.967 175.3,136.634 174,157.5C 166.814,174.009 154.98,178.509 138.5,171C 127.836,161.953 125.669,151.12 132,138.5C 135.465,134.193 139.631,130.859 144.5,128.5 Z"/></g>
<g><path style="opacity:0.953" fill="#929292" d="M 142.5,111.5 C 165.329,108.547 181.163,117.547 190,138.5C 195.718,162.897 187.218,180.064 164.5,190C 140.103,195.718 122.936,187.218 113,164.5C 107.424,137.977 117.257,120.31 142.5,111.5 Z M 144.5,128.5 C 139.631,130.859 135.465,134.193 132,138.5C 125.669,151.12 127.836,161.953 138.5,171C 154.98,178.509 166.814,174.009 174,157.5C 175.3,136.634 165.467,126.967 144.5,128.5 Z"/></g>
</svg>
