<svg width="11" height="12" viewBox="0 0 11 12" fill="none" xmlns="http://www.w3.org/2000/svg">
<path d="M9.27994 4.23377L9.27994 4.23205C9.28106 3.69019 9.07286 3.16918 8.69938 2.77829C8.32758 2.3912 7.82414 2.17553 7.29993 2.17539C7.03839 2.17615 6.77965 2.22981 6.5392 2.33319C6.29858 2.43665 6.08118 2.58779 5.90006 2.77761L5.8986 2.77915L5.89859 2.77915L5.78782 2.89402C5.71252 2.9721 5.60874 3.01625 5.50027 3.01635C5.39179 3.01645 5.28793 2.9725 5.21248 2.89456L5.10129 2.77969L5.09868 2.77699L5.09869 2.77698C4.91815 2.58692 4.70107 2.43569 4.46065 2.33237C4.22023 2.22906 3.96144 2.17581 3.69996 2.17581C3.43848 2.17581 3.17969 2.22906 2.93927 2.33237C2.69885 2.43569 2.48177 2.58692 2.30123 2.77698L2.29946 2.77883C1.52681 3.58184 1.52672 4.88387 2.2995 5.68739L9.27994 4.23377ZM9.27994 4.23377C9.28115 4.77555 9.07311 5.29653 8.6998 5.68747C8.35445 6.04661 8.01612 6.40701 7.67948 6.76561C7.00836 7.48052 6.34397 8.18826 5.64407 8.86451C5.56026 8.94313 5.42776 8.93947 5.34885 8.85756C5.34883 8.85753 5.3488 8.85751 5.34878 8.85748L2.29952 5.68741L9.27994 4.23377Z" stroke="#FD5F4A" stroke-width="0.8" stroke-linejoin="round"/>
</svg>
